<?xml version="1.0" encoding="utf-8"?>
<!-- Generator: Adobe Illustrator 27.2.0, SVG Export Plug-In . SVG Version: 6.00 Build 0)  -->
<svg version="1.1" id="Layer_1" xmlns="http://www.w3.org/2000/svg" xmlns:xlink="http://www.w3.org/1999/xlink" x="0px" y="0px"
	 viewBox="0 0 82 80.88" style="enable-background:new 0 0 82 80.88;" xml:space="preserve">
<path d="M82,40.44c0,2.37-2.19,4.52-2.59,6.78c-0.41,2.32,0.91,5.09,0.12,7.25c-0.8,2.2-3.6,3.47-4.76,5.48
	c-1.17,2.02-0.88,5.08-2.37,6.85c-1.5,1.78-4.56,2.02-6.34,3.52c-1.78,1.49-2.54,4.47-4.57,5.64c-2,1.16-4.96,0.34-7.16,1.15
	c-2.16,0.79-3.9,3.32-6.22,3.73c-2.26,0.4-4.75-1.38-7.12-1.38c-2.37,0-4.86,1.78-7.12,1.38c-2.32-0.41-4.06-2.94-6.22-3.73
	c-2.2-0.8-5.16,0.01-7.16-1.15c-2.02-1.17-2.79-4.14-4.57-5.64c-1.78-1.5-4.84-1.74-6.34-3.52c-1.49-1.78-1.2-4.83-2.37-6.85
	c-1.16-2-3.95-3.27-4.76-5.47c-0.79-2.16,0.53-4.93,0.12-7.25C2.19,44.96,0,42.81,0,40.44c0-2.37,2.19-4.52,2.59-6.78
	c0.41-2.32-0.91-5.09-0.12-7.25c0.8-2.2,3.6-3.47,4.76-5.48c1.17-2.02,0.88-5.08,2.37-6.85c1.5-1.78,4.56-2.02,6.34-3.52
	c1.78-1.49,2.54-4.47,4.57-5.64c2-1.16,4.96-0.34,7.16-1.15c2.16-0.79,3.9-3.32,6.22-3.73c2.26-0.4,4.75,1.38,7.12,1.38
	c2.37,0,4.86-1.78,7.12-1.38c2.32,0.41,4.06,2.94,6.22,3.73c2.2,0.8,5.16-0.01,7.16,1.15c2.02,1.17,2.79,4.14,4.57,5.64
	c1.78,1.5,4.84,1.74,6.34,3.52c1.49,1.78,1.2,4.83,2.37,6.85c1.16,2,3.95,3.27,4.76,5.47c0.79,2.16-0.53,4.93-0.12,7.25
	C79.81,35.92,82,38.07,82,40.44z"/>
</svg>
